# xmcd
#
# Track frame offsets: 
#        150
#        18856
#        30478
#        49520
#        58429
#        78937
#        92008
#        112534
#        129202
#        151654
#
# Disc length: 2224 seconds
#
# Revision: 0
# Processed by: cddbd v1.5.2PL0 Copyright (c) Steve Scherf et al.
# Submitted via: ExactAudioCopyFreeDBPlugin 1.0
#
DISCID=6208ae0a
DTITLE=The Eastern - Hope and Wire (Wire)
DYEAR=2012
DGENRE=country
TTITLE0=North Wind
TTITLE1=Turn it Round
TTITLE2=Four on the Floor
TTITLE3=Up Spinner
TTITLE4=Hope and Wire
TTITLE5=Wait out the Winter
TTITLE6=So Low Blues
TTITLE7=Let 'Em Know
TTITLE8=The Waterside
TTITLE9=In The Morning
EXTD=
EXTT0=
EXTT1=
EXTT2=
EXTT3=
EXTT4=
EXTT5=
EXTT6=
EXTT7=
EXTT8=
EXTT9=
PLAYORDER=
